PathFileType	4	(X/Y/Z)	/Users/itak/Documents/Research/Walk-IL/dataset/trc/00473_00167.trc
DataRate	CameraRate	NumFrames	NumMarkers	Units	OrigDataRate	OrigDataStartFrame	OrigNumFrames
100.000000	100.000000	4	53	mm	100.000000	143	575
Frame#	Time	RPSI			LPSI			L3			STRN			T10			C7			CLAV			RBAK			LBAK			LSHO			LUPA			LAEL			LAOL			LWTS			LWPS			LFRA			LIFD			LHPS			LHTS			RSHO			RUPA			RAEL			RAOL			RWTS			RWPS			RFRA			RIFD			RHTS			RHPS			RBHD			LFHD			RFHD			LBHD			LHIP			RHIP			RASI			LASI			LKNE			LTHI			LANK			LTIP			LTOE			LMT1			LMT5			LHEE			RKNE			RTHI			RANK			RTIP			RTOE			RMT1			RMT5			RHEE			
		X1	Y1	Z1	X2	Y2	Z2	X3	Y3	Z3	X4	Y4	Z4	X5	Y5	Z5	X6	Y6	Z6	X7	Y7	Z7	X8	Y8	Z8	X9	Y9	Z9	X10	Y10	Z10	X11	Y11	Z11	X12	Y12	Z12	X13	Y13	Z13	X14	Y14	Z14	X15	Y15	Z15	X16	Y16	Z16	X17	Y17	Z17	X18	Y18	Z18	X19	Y19	Z19	X20	Y20	Z20	X21	Y21	Z21	X22	Y22	Z22	X23	Y23	Z23	X24	Y24	Z24	X25	Y25	Z25	X26	Y26	Z26	X27	Y27	Z27	X28	Y28	Z28	X29	Y29	Z29	X30	Y30	Z30	X31	Y31	Z31	X32	Y32	Z32	X33	Y33	Z33	X34	Y34	Z34	X35	Y35	Z35	X36	Y36	Z36	X37	Y37	Z37	X38	Y38	Z38	X39	Y39	Z39	X40	Y40	Z40	X41	Y41	Z41	X42	Y42	Z42	X43	Y43	Z43	X44	Y44	Z44	X45	Y45	Z45	X46	Y46	Z46	X47	Y47	Z47	X48	Y48	Z48	X49	Y49	Z49	X50	Y50	Z50	X51	Y51	Z51	X52	Y52	Z52	X53	Y53	Z53	

144	1.43	-1263.119018554688	940.6055297851562	-426.7061157226562	-1235.20458984375	939.7982177734375	-566.780029296875	-1238.978393554688	1043.120483398438	-479.4564819335938	-965.4525756835938	1238.243286132812	-445.04052734375	-1255.521606445312	1167.899780273438	-483.0964050292969	-1183.728637695312	1433.270263671875	-456.203125	-998.3478393554688	1352.427612304688	-452.5772399902344	-1258.29345703125	1315.868530273438	-369.9466552734375	-1207.20458984375	1388.935668945312	-559.8685302734375	-1095.382934570312	1412.219970703125	-627.0322265625	-1099.229614257812	1297.205932617188	-728.673583984375	-1081.820922851562	1084.454223632812	-771.1943969726562	-1157.7724609375	1066.437377929688	-702.9690551757812	-1001.124816894531	881.07421875	-746.840576171875	-1052.45947265625	869.54248046875	-800.2686767578125	-1063.055908203125	997.7568969726562	-787.2222900390625	-994.093505859375	724.9862060546875	-776.2933959960938	-1044.712646484375	793.9017944335938	-808.3836059570312	-986.0868530273438	798.2002563476562	-766.0618896484375	-1130.341918945312	1404.928955078125	-289.780517578125	-1152.398681640625	1345.915649414062	-213.7100830078125	-1146.084350585938	1055.273315429688	-162.4508361816406	-1196.423950195312	1041.948486328125	-205.4756927490234	-1053.26171875	844.6494140625	-204.9538116455078	-1122.466430664062	833.8047485351562	-150.4034271240234	-1145.397338867188	996.6813354492188	-153.9632263183594	-1062.191162109375	687.9728393554688	-196.3603973388672	-1043.309204101562	746.1768798828125	-192.8866729736328	-1111.365234375	747.3757934570312	-152.3254852294922	-1126.090576171875	1630.516845703125	-375.9293212890625	-957.9935302734375	1646.33740234375	-495.5662841796875	-990.0576171875	1652.356079101562	-369.1018981933594	-1098.668823242188	1626.139282226562	-551.3695068359375	-1071.199462890625	844.6096801757812	-655.8265991210938	-1171.110473632812	837.4927978515625	-267.5369262695312	-1058.6796875	885.8959350585938	-307.9510803222656	-996.7276000976562	887.414794921875	-557.8729248046875	-1013.067321777344	428.6415405273438	-637.9119873046875	-996.0469970703125	586.051025390625	-642.995849609375	-1226.08251953125	61.35141754150391	-694.8974609375	-1077.522216796875	288.07861328125	-674.1006469726562	-1007.599365234375	42.00622940063477	-602.179443359375	-1083.214111328125	49.4205207824707	-581.3065795898438	-1075.988037109375	48.66971969604492	-693.8493041992188	-1277.072143554688	69.81262969970703	-636.1417846679688	-1108.761474609375	447.1896057128906	-310.5602722167969	-1117.529541015625	703.5223999023438	-258.9306945800781	-1252.591796875	47.84611892700195	-334.2275390625	-1132.66259765625	300.8614807128906	-310.9625854492188	-1035.144897460938	50.63584518432617	-363.0990295410156	-1093.788940429688	50.60353851318359	-406.5926818847656	-1123.721313476562	53.14080810546875	-301.6227416992188	-1315.11767578125	38.49220275878906	-381.8012084960938	
145	1.44	-1261.456298828125	939.0562744140625	-424.9658508300781	-1233.837524414062	937.0226440429688	-565.2255859375	-1236.854858398438	1042.109497070312	-477.3050537109375	-962.5625610351562	1236.810302734375	-441.8771362304688	-1252.969482421875	1166.854614257812	-480.6979675292969	-1180.843017578125	1432.11669921875	-453.1181335449219	-995.1842651367188	1351.160400390625	-449.2328796386719	-1255.551635742188	1314.6533203125	-367.0981750488281	-1204.208374023438	1387.986328125	-556.9052734375	-1092.219360351562	1411.41845703125	-623.8067016601562	-1096.090209960938	1296.554077148438	-725.5701904296875	-1078.693725585938	1084.036376953125	-768.844970703125	-1154.651245117188	1065.768676757812	-700.6695556640625	-997.8174438476562	880.62109375	-744.8780517578125	-1049.159301757812	869.21533203125	-798.4111938476562	-1059.8349609375	997.3772583007812	-785.0556640625	-990.9159545898438	724.599609375	-774.6519775390625	-1041.394775390625	793.6375732421875	-806.697509765625	-982.861328125	797.7318725585938	-764.234130859375	-1127.53759765625	1403.62255859375	-286.6458435058594	-1149.7392578125	1344.527465820312	-210.6545257568359	-1143.505493164062	1053.828247070312	-159.3193359375	-1193.548461914062	1040.360717773438	-202.5889892578125	-1049.644409179688	843.4759521484375	-201.6506500244141	-1118.988037109375	832.48779296875	-147.3082427978516	-1142.61962890625	995.2445068359375	-150.9016418457031	-1058.70556640625	686.7647094726562	-193.6014404296875	-1039.748046875	744.9552001953125	-189.9687194824219	-1107.883666992188	746.0560913085938	-149.4638061523438	-1124.07568359375	1629.519165039062	-373.4770202636719	-955.5794677734375	1645.412841796875	-492.6262512207031	-988.1174926757812	1651.7783203125	-366.2431945800781	-1096.037719726562	1624.62109375	-548.7984619140625	-1068.639282226562	842.4415893554688	-654.0337524414062	-1168.8740234375	836.352783203125	-265.7437438964844	-1056.76025390625	884.5687866210938	-306.2645568847656	-995.194580078125	886.1531372070312	-555.9237060546875	-999.6263427734375	428.8217163085938	-634.9501342773438	-985.1674194335938	586.2852783203125	-639.5916137695312	-1224.2880859375	68.44906616210938	-693.413818359375	-1068.52783203125	289.9781188964844	-671.8164672851562	-1007.127075195312	41.66802215576172	-602.1640014648438	-1081.966186523438	49.98931121826172	-580.8539428710938	-1075.3662109375	50.02700424194336	-693.1260986328125	-1274.501342773438	78.57064819335938	-634.2496337890625	-1106.357177734375	446.0405883789062	-309.6644592285156	-1114.888793945312	702.3867797851562	-257.4048461914062	-1252.64697265625	47.79383087158203	-334.220458984375	-1131.174926757812	299.8057556152344	-310.51416015625	-1035.1845703125	50.45769500732422	-363.0176391601562	-1093.773071289062	50.41357421875	-406.5484924316406	-1123.6787109375	52.98760223388672	-301.5479736328125	-1315.191162109375	38.48978424072266	-381.7747497558594	
146	1.45	-1259.739624023438	937.51904296875	-423.1795654296875	-1232.480224609375	934.3145141601562	-563.6181030273438	-1234.876098632812	1041.171142578125	-475.1158142089844	-959.5162963867188	1235.403442382812	-438.8776550292969	-1250.294311523438	1165.900634765625	-478.2551574707031	-1177.777465820312	1431.07275390625	-450.08203125	-991.8668823242188	1349.929321289062	-446.01220703125	-1252.642456054688	1313.50634765625	-364.28173828125	-1201.0693359375	1387.153442382812	-553.9990234375	-1088.914428710938	1410.673095703125	-620.688720703125	-1092.863525390625	1295.892211914062	-722.5403442382812	-1075.510131835938	1083.610229492188	-766.5535888671875	-1151.463134765625	1065.105346679688	-698.4174194335938	-994.439697265625	880.1854858398438	-742.93310546875	-1045.778930664062	868.896484375	-796.5531616210938	-1056.548828125	997.0042114257812	-782.9312744140625	-987.6182861328125	724.2457885742188	-773.0023803710938	-1037.988159179688	793.3992919921875	-804.9945068359375	-979.5117797851562	797.3239135742188	-762.4172973632812	-1124.5107421875	1402.325561523438	-283.5743103027344	-1146.853637695312	1343.09228515625	-207.6864166259766	-1140.73095703125	1052.388427734375	-156.2748413085938	-1190.436401367188	1038.7392578125	-199.8139495849609	-1045.7744140625	842.3160400390625	-198.1722106933594	-1115.394897460938	831.2019653320312	-144.2258758544922	-1139.655517578125	993.8084716796875	-147.9004974365234	-1054.927734375	685.5889892578125	-190.5410003662109	-1035.92626953125	743.77294921875	-186.7496337890625	-1104.251586914062	744.7764282226562	-146.5110168457031	-1121.878540039062	1628.551391601562	-371.0048828125	-953.067138671875	1644.663696289062	-489.7708435058594	-986.0060424804688	1651.347412109375	-363.4512023925781	-1093.337890625	1623.173583984375	-546.2161254882812	-1066.104125976562	840.6609497070312	-652.43603515625	-1166.445434570312	835.2216796875	-264.044677734375	-1054.605102539062	883.2693481445312	-304.7379760742188	-993.7088623046875	885.0843505859375	-554.1805419921875	-985.7897338867188	429.7073669433594	-631.885498046875	-974.1988525390625	587.1962280273438	-636.401123046875	-1221.798217773438	76.52744293212891	-691.6593017578125	-1058.848876953125	292.5256652832031	-669.216796875	-1006.405029296875	41.54546737670898	-601.9340209960938	-1080.3330078125	50.84217071533203	-580.0873413085938	-1074.3095703125	52.01617431640625	-692.060546875	-1271.158569335938	88.34157562255859	-632.1315307617188	-1104.092895507812	444.951904296875	-308.852783203125	-1112.159057617188	701.28173828125	-255.99853515625	-1252.68798828125	47.75151062011719	-334.2335205078125	-1129.802490234375	298.8376770019531	-310.1164855957031	-1035.210327148438	50.30161666870117	-362.9437561035156	-1093.756591796875	50.24552154541016	-406.5066833496094	-1123.618286132812	52.8433837890625	-301.4879150390625	-1315.240844726562	38.49839782714844	-381.7771606445312	
147	1.46	-1257.8955078125	936.086669921875	-421.3517456054688	-1231.0322265625	931.8626098632812	-561.9542236328125	-1233.026123046875	1040.359497070312	-472.8965759277344	-956.31103515625	1234.089965820312	-436.0536499023438	-1247.500732421875	1165.084716796875	-475.7743835449219	-1174.532836914062	1430.169921875	-447.1124267578125	-988.422607421875	1348.7890625	-442.9460144042969	-1249.556640625	1312.477172851562	-361.5020446777344	-1197.792358398438	1386.470092773438	-551.1685180664062	-1085.471435546875	1410.018432617188	-617.6927490234375	-1089.535766601562	1295.2685546875	-719.6041259765625	-1072.253540039062	1083.215087890625	-764.3165893554688	-1148.205200195312	1064.496704101562	-696.2227172851562	-991.0082397460938	879.79736328125	-740.98876953125	-1042.31591796875	868.6189575195312	-794.6923217773438	-1053.184204101562	996.672607421875	-780.8477172851562	-984.218017578125	723.95458984375	-771.3392944335938	-1034.491455078125	793.2183227539062	-803.2716674804688	-976.0527954101562	797.0042724609375	-760.6010131835938	-1121.255615234375	1401.091186523438	-280.5812683105469	-1143.720947265625	1341.666381835938	-204.8155670166016	-1137.70703125	1051.012817382812	-153.3479919433594	-1187.05322265625	1037.148559570312	-197.1717529296875	-1041.670043945312	841.212646484375	-194.5714569091797	-1111.684814453125	830.0030517578125	-141.1936950683594	-1136.465454101562	992.43115234375	-144.9833831787109	-1050.862670898438	684.4869384765625	-187.1675720214844	-1031.852172851562	742.6715698242188	-183.2396240234375	-1100.471313476562	743.5950317382812	-143.4699096679688	-1119.47021484375	1627.641723632812	-368.5294494628906	-950.4223022460938	1644.105346679688	-486.9988098144531	-983.6961669921875	1651.0654296875	-360.7351989746094	-1090.52978515625	1621.833251953125	-543.6395263671875	-1063.530883789062	839.3436279296875	-650.9954223632812	-1163.84765625	834.1547241210938	-262.4378356933594	-1052.19580078125	882.0562744140625	-303.3305969238281	-992.1962280273438	884.2784423828125	-552.6016235351562	-971.66845703125	431.2783203125	-628.7335815429688	-963.2498168945312	588.77490234375	-633.45849609375	-1218.423828125	85.27490997314453	-689.5598754882812	-1048.501098632812	295.6144104003906	-666.3109130859375	-1005.11669921875	41.69882583618164	-601.4022827148438	-1078.066040039062	52.08159637451172	-578.9243774414062	-1072.551513671875	54.65432739257812	-690.6073608398438	-1266.881225585938	98.72257232666016	-629.7249755859375	-1102.0556640625	443.9627075195312	-308.1206665039062	-1109.414306640625	700.2490234375	-254.7158813476562	-1252.719116210938	47.71379089355469	-334.26025390625	-1128.595336914062	297.980712890625	-309.7518310546875	-1035.228637695312	50.16684722900391	-362.8724365234375	-1093.744018554688	50.10417175292969	-406.4681701660156	-1123.545288085938	52.70547866821289	-301.435546875	-1315.276733398438	38.51475524902344	-381.79931640625	
